<svg xmlns="http://www.w3.org/2000/svg" width="24" height="24" fill="none"><path fill="#2D2D2D" fill-rule="evenodd" d="M12 20.333a8.333 8.333 0 1 0 0-16.666 8.333 8.333 0 0 0 0 16.666Zm0-1.666a6.667 6.667 0 1 0 0-13.334 6.667 6.667 0 0 0 0 13.334Zm-.833-10.834H9.5v5.834h5.833V12h-4.166V7.833Z" clip-rule="evenodd"/><mask id="a" width="18" height="18" x="3" y="3" maskUnits="userSpaceOnUse" style="mask-type:alpha"><path fill="#fff" fill-rule="evenodd" d="M12 20.333a8.333 8.333 0 1 0 0-16.666 8.333 8.333 0 0 0 0 16.666Zm0-1.666a6.667 6.667 0 1 0 0-13.334 6.667 6.667 0 0 0 0 13.334Zm-.833-10.834H9.5v5.834h5.833V12h-4.166V7.833Z" clip-rule="evenodd"/></mask></svg>